<svg xmlns="http://www.w3.org/2000/svg" width="800" height="520" viewBox="0 0 800 520" role="img" aria-labelledby="ttl">
<title id="ttl">Buck 降压：电感是「水车惯性」，把断续水流碾成直流</title>
<desc>Buck 降压：电感是「水车惯性」，把断续水流碾成直流；节拍：① 开关闭合：12V 经电感向输出灌能量——电感电流斜坡上升（储 ½LI²）；② 开关断开：电感不许电流突变，把节点拉到负压——二极管接住续流；③ 伏秒平衡：电感一周期平均电压必须为 0 → Vout = D×Vin = 0.42×12 = 5V</desc>
<defs>
<linearGradient id="bgL" x1="0" y1="0" x2="0" y2="1">
<stop offset="0" stop-color="#ffffff"/><stop offset="1" stop-color="#eef2f8"/>
</linearGradient>
<linearGradient id="bgD" x1="0" y1="0" x2="0" y2="1">
<stop offset="0" stop-color="#0a1020"/><stop offset="1" stop-color="#141d30"/>
</linearGradient>
<radialGradient id="vig" cx="0.5" cy="0.44" r="0.78">
<stop offset="0.55" stop-color="#0f172a" stop-opacity="0"/><stop offset="1" stop-color="#0f172a" stop-opacity="0.065"/>
</radialGradient>
<linearGradient id="hdr" x1="0" y1="0" x2="0" y2="1">
<stop offset="0" stop-color="#2563eb" stop-opacity="0.10"/>
<stop offset="0.55" stop-color="#2563eb" stop-opacity="0.030"/>
<stop offset="1" stop-color="#2563eb" stop-opacity="0"/>
</linearGradient>
<linearGradient id="hdrD" x1="0" y1="0" x2="0" y2="1">
<stop offset="0" stop-color="#60a5fa" stop-opacity="0.13"/>
<stop offset="0.55" stop-color="#60a5fa" stop-opacity="0.040"/>
<stop offset="1" stop-color="#60a5fa" stop-opacity="0"/>
</linearGradient>
<pattern id="dots" width="22" height="22" patternUnits="userSpaceOnUse">
<circle cx="1.5" cy="1.5" r="1.05" fill="#cbd5e1"/>
</pattern>
<filter id="soft" x="-40%" y="-40%" width="180%" height="180%">
<feDropShadow dx="0" dy="1.6" stdDeviation="2.4" flood-color="#0f172a" flood-opacity="0.17"/>
</filter>
<filter id="pglow" x="-70%" y="-70%" width="240%" height="240%">
<feGaussianBlur stdDeviation="2.1" result="b"/>
<feMerge><feMergeNode in="b"/><feMergeNode in="SourceGraphic"/></feMerge>
</filter>
</defs>
<rect class="page-bg" width="800" height="520" fill="url(#bgL)"/>
<rect width="800" height="520" fill="url(#dots)" opacity="0.40"/>
<rect class="page-vig" width="800" height="520" fill="url(#vig)"/>
<rect class="page-hdr" width="800" height="72" fill="url(#hdr)"/>
<style>
text{font-family:"Segoe UI","Microsoft YaHei",sans-serif;}
.page-bg{fill:url(#bgL)}
.page-vig{opacity:1}
.page-hdr{fill:url(#hdr)}
line,path,polyline,polygon{stroke-linecap:round;stroke-linejoin:round}
rect[fill="#f8fafc"],rect[fill="#eff6ff"],rect[fill="#ecfdf5"],rect[fill="#fffbeb"],rect[fill="#fef2f2"],rect[fill="#dbeafe"]{filter:url(#soft)}
/* 浅色下的「弱化色」文字偏淡（#94a3b8 在白底只有 2.6:1）→ 只压暗文字，不动同色的线/粒子 */
@media (prefers-color-scheme: light){
text[fill="#94a3b8"],tspan[fill="#94a3b8"]{fill:#64748b}
text[fill="#0ea5e9"],tspan[fill="#0ea5e9"]{fill:#0284c7}
text[fill="#f59e0b"],tspan[fill="#f59e0b"]{fill:#b45309}
}
@media (prefers-color-scheme: dark){
.page-bg{fill:url(#bgD)}
.page-vig{opacity:0.45}
.page-hdr{fill:url(#hdrD)}
[fill="#f8fafc"]{fill:#0f172a}
[fill="#f1f5f9"]{fill:#1e293b}[fill="#e0f2fe"]{fill:#082f49}[fill="#fff7ed"]{fill:#431407}
[fill="#d1fae5"]{fill:#022c22}[fill="#fee2e2"]{fill:#450a0a}
[fill="#1e293b"]{fill:#f1f5f9}[stroke="#1e293b"]{stroke:#f1f5f9}
[fill="#334155"]{fill:#e2e8f0}[stroke="#334155"]{stroke:#e2e8f0}
[fill="#475569"]{fill:#cbd5e1}[stroke="#475569"]{stroke:#cbd5e1}
[fill="#64748b"]{fill:#94a3b8}[stroke="#64748b"]{stroke:#94a3b8}
[fill="#dbeafe"]{fill:#1e3a8a}[fill="#eff6ff"]{fill:#172554}
[fill="#1d4ed8"]{fill:#60a5fa}[fill="#2563eb"]{fill:#60a5fa}[fill="#3b82f6"]{fill:#60a5fa}
[fill="#ecfdf5"]{fill:#022c22}[fill="#059669"]{fill:#34d399}[fill="#065f46"]{fill:#6ee7b7}[fill="#10b981"]{fill:#34d399}
[fill="#34d399"]{fill:#065f46}
[fill="#fffbeb"]{fill:#451a03}[fill="#b45309"]{fill:#fcd34d}[fill="#92400e"]{fill:#fcd34d}[fill="#f59e0b"]{fill:#fbbf24}
[fill="#fef2f2"]{fill:#450a0a}[fill="#dc2626"]{fill:#f87171}[fill="#991b1b"]{fill:#fca5a5}
[fill="#cbd5e1"]{fill:#334155}[stroke="#cbd5e1"]{stroke:#475569}
[fill="#ffffff"]{fill:#0f172a}[fill="#94a3b8"]{fill:#8497ad}[stroke="#94a3b8"]{stroke:#64748b}
[fill="#7c3aed"]{fill:#a78bfa}[stroke="#7c3aed"]{stroke:#a78bfa}
[fill="#b91c1c"]{fill:#f87171}[stroke="#b91c1c"]{stroke:#f87171}
[fill="#0369a1"]{fill:#7dd3fc}[stroke="#0369a1"]{stroke:#7dd3fc}
[fill="#0284c7"]{fill:#7dd3fc}[stroke="#0284c7"]{stroke:#7dd3fc}
text[fill="#fff"]{fill:#0f172a}
}
/* 尊重系统的「减弱动效」偏好：把"会飞"的东西关掉 —— 电流粒子、波形游标、
   扫压圆点、脉冲辉光圈，它们是前庭不适的根源。器件状态变化与节拍字幕保留：
   字幕是多路复用（同一行轮流显示），若一起显示反而互相压字、更读不了。
   选择器靠结构而非类名，所以新增动画无需额外登记；老浏览器不支持 :has()
   时整块被忽略，退化为"照常播放"，不会白屏。 */
@media (prefers-reduced-motion: reduce){
:has(> animateMotion):not(:has(text)),
:has(> animateTransform):not(:has(text)),
:has(> animate:not([attributeName="opacity"])):not(:has(text)){display:none}
}
</style>
<text x="400" y="29" text-anchor="middle" font-size="19" font-weight="bold" fill="#1e293b">Buck 降压：电感是「水车惯性」，把断续水流碾成直流</text>

<text x="220" y="52" text-anchor="middle" font-size="14" font-weight="bold" fill="#334155">Buck 变换器（12V → 5V，占空比 42%）</text>
<text x="44" y="102" font-size="12.5" font-weight="bold" fill="#b45309">12V</text>
<line x1="70" y1="96" x2="130" y2="96" stroke="#334155" stroke-width="2.5"/>
<circle cx="140" cy="96" r="3.5" fill="#334155"/>
<line x1="140" y1="96" x2="170" y2="68" stroke="#059669" stroke-width="3">
<animate attributeName="opacity" values="1;1;0;0" keyTimes="0;0.4;0.46;1" dur="6s" repeatCount="indefinite"/></line>
<circle cx="176" cy="96" r="3.5" fill="#334155"/>
<text x="126" y="69" font-size="11" font-weight="bold" fill="#334155">开关 SW</text>
<line x1="176" y1="96" x2="200" y2="96" stroke="#334155" stroke-width="2.5"/>
<circle cx="205" cy="96" r="4" fill="#334155"/>
<text x="166" y="86" font-size="10" fill="#7c3aed">开关节点</text>
<path d="M205,96 q8,-16 16,0 q8,16 16,0 q8,-16 16,0 q8,16 16,0 q8,-16 16,0" fill="none" stroke="#7c3aed" stroke-width="2.5"/>
<text x="222" y="70" font-size="12" font-weight="bold" fill="#7c3aed">电感 L</text>
<line x1="285" y1="96" x2="320" y2="96" stroke="#334155" stroke-width="2.5"/>
<circle cx="320" cy="96" r="4" fill="#334155"/>
<line x1="320" y1="96" x2="380" y2="96" stroke="#334155" stroke-width="2.5"/>
<text x="384" y="101" font-size="12.5" font-weight="bold" fill="#059669">5V 输出</text>
<line x1="320" y1="96" x2="320" y2="130" stroke="#334155" stroke-width="2.5"/>
<line x1="304" y1="130" x2="336" y2="130" stroke="#2563eb" stroke-width="3.5"/>
<line x1="304" y1="142" x2="336" y2="142" stroke="#2563eb" stroke-width="3.5"/>
<line x1="320" y1="142" x2="320" y2="160" stroke="#334155" stroke-width="2"/>
<line x1="320" y1="160" x2="320" y2="174" stroke="#334155" stroke-width="2.5"/><line x1="304" y1="174" x2="336" y2="174" stroke="#334155" stroke-width="3"/><line x1="310" y1="180" x2="330" y2="180" stroke="#334155" stroke-width="3"/><line x1="316" y1="186" x2="324" y2="186" stroke="#334155" stroke-width="3"/>
<text x="344" y="140" font-size="10.5" fill="#2563eb">C 滤波</text>
<line x1="205" y1="96" x2="205" y2="150" stroke="#334155" stroke-width="2.5"/>
<polygon points="205,146 193,170 217,170" fill="none" stroke="#334155" stroke-width="2.5"/>
<line x1="193" y1="146" x2="217" y2="146" stroke="#334155" stroke-width="3"/>
<line x1="205" y1="170" x2="205" y2="186" stroke="#334155" stroke-width="2.5"/>
<line x1="205" y1="186" x2="205" y2="200" stroke="#334155" stroke-width="2.5"/><line x1="189" y1="200" x2="221" y2="200" stroke="#334155" stroke-width="3"/><line x1="195" y1="206" x2="215" y2="206" stroke="#334155" stroke-width="3"/><line x1="201" y1="212" x2="209" y2="212" stroke="#334155" stroke-width="3"/>
<text x="150" y="182" font-size="10.5" fill="#dc2626">续流二极管</text>
<line x1="40" y1="200" x2="40" y2="96" stroke="#334155" stroke-width="1.5" stroke-dasharray="4,3" opacity="0.4"/>
<line x1="40" y1="200" x2="320" y2="200" stroke="#334155" stroke-width="1.5" stroke-dasharray="4,3" opacity="0.4"/>
<g><animate attributeName="opacity" values="1;1;0;0" keyTimes="0;0.4;0.46;1" dur="6s" repeatCount="indefinite"/><g filter="url(#pglow)"><circle r="5" fill="#059669"><animateMotion dur="2.0s" begin="-0.50s" repeatCount="indefinite" path="M74,92 H196 M214,92 H316"/></circle>
<circle r="5" fill="#059669"><animateMotion dur="2.0s" begin="-0.17s" repeatCount="indefinite" path="M74,92 H196 M214,92 H316"/></circle>
<circle r="5" fill="#059669"><animateMotion dur="2.0s" begin="0.17s" repeatCount="indefinite" path="M74,92 H196 M214,92 H316"/></circle>
<circle r="5" fill="#059669"><animateMotion dur="2.0s" begin="0.50s" repeatCount="indefinite" path="M74,92 H196 M214,92 H316"/></circle>
<circle r="5" fill="#059669"><animateMotion dur="2.0s" begin="0.83s" repeatCount="indefinite" path="M74,92 H196 M214,92 H316"/></circle>
<circle r="5" fill="#059669"><animateMotion dur="2.0s" begin="1.17s" repeatCount="indefinite" path="M74,92 H196 M214,92 H316"/></circle></g></g><g><animate attributeName="opacity" values="0;0;1;1;0;0" keyTimes="0;0.5;0.56;0.88;0.94;1" dur="6s" repeatCount="indefinite"/><g filter="url(#pglow)"><circle r="5" fill="#dc2626"><animateMotion dur="2.0s" begin="-0.50s" repeatCount="indefinite" path="M205,186 V160 M214,146 V100 M214,92 H316"/></circle>
<circle r="5" fill="#dc2626"><animateMotion dur="2.0s" begin="-0.10s" repeatCount="indefinite" path="M205,186 V160 M214,146 V100 M214,92 H316"/></circle>
<circle r="5" fill="#dc2626"><animateMotion dur="2.0s" begin="0.30s" repeatCount="indefinite" path="M205,186 V160 M214,146 V100 M214,92 H316"/></circle>
<circle r="5" fill="#dc2626"><animateMotion dur="2.0s" begin="0.70s" repeatCount="indefinite" path="M205,186 V160 M214,146 V100 M214,92 H316"/></circle>
<circle r="5" fill="#dc2626"><animateMotion dur="2.0s" begin="1.10s" repeatCount="indefinite" path="M205,186 V160 M214,146 V100 M214,92 H316"/></circle></g></g>
<text x="440" y="252" font-size="11.5" font-weight="bold" fill="#7c3aed">开关节点电压（方波）</text>
<path d="M430,300 V268 H475 V300 H537 V268 H582 V300 H644 V268 H689 V300 H750" fill="none" stroke="#7c3aed" stroke-width="2.8"/>
<text x="440" y="332" font-size="11.5" font-weight="bold" fill="#059669">电感电流（三角波：斜坡升/斜坡降）</text>
<path d="M430,372 L433,370 L437,368 L440,365 L443,363 L447,361 L450,359 L453,356 L457,354 L460,352 L463,350 L467,347 L470,345 L473,343 L477,343 L480,345 L483,346 L487,348 L490,349 L493,351 L497,353 L500,354 L503,356 L507,357 L510,359 L513,361 L517,362 L520,364 L523,366 L527,367 L530,369 L533,370 L537,372 L540,370 L543,368 L547,365 L550,363 L553,361 L557,359 L560,356 L563,354 L567,352 L570,350 L573,347 L577,345 L580,343 L583,343 L587,345 L590,346 L593,348 L597,349 L600,351 L603,353 L607,354 L610,356 L613,357 L617,359 L620,361 L623,362 L627,364 L630,366 L633,367 L637,369 L640,370 L643,372 L647,370 L650,368 L653,365 L657,363 L660,361 L663,359 L667,356 L670,354 L673,352 L677,350 L680,347 L683,345 L687,343 L690,343 L693,345 L697,346 L700,348 L703,349 L707,351 L710,353 L713,354 L717,356 L720,357 L723,359 L727,361 L730,362 L733,364 L737,366 L740,367 L743,369 L747,370 L750,372" fill="none" stroke="#059669" stroke-width="2.8"/>
<line x1="430" y1="392" x2="750" y2="392" stroke="#2563eb" stroke-width="2.8"/>
<text x="440" y="412" font-size="11.5" font-weight="bold" fill="#2563eb">输出电压（惯性碾平=直流 5V）</text>
<g><animateTransform attributeName="transform" type="translate" values="0 6.0;0 0.0;0 0.0;0 6.0;0 6.0" keyTimes="0;0.03;0.2;0.26;1" dur="6s" repeatCount="indefinite"/><rect x="134.4" y="446.9" width="531.2" height="24.1" rx="12.0" fill="#059669" fill-opacity="0.09" stroke="#059669" stroke-opacity="0.38" stroke-width="1.3" filter="url(#soft)" opacity="0"><animate attributeName="opacity" values="0;1;1;0;0" keyTimes="0;0.03;0.2;0.26;1" dur="6s" repeatCount="indefinite"/></rect><text x="400" y="460" text-anchor="middle" font-size="14.5" font-weight="bold" fill="#059669" opacity="0">① 开关闭合：12V 经电感向输出灌能量——电感电流斜坡上升（储 ½LI²）<animate attributeName="opacity" values="0;1;1;0;0" keyTimes="0;0.03;0.2;0.26;1" dur="6s" repeatCount="indefinite"/></text></g><g><animateTransform attributeName="transform" type="translate" values="0 6.0;0 6.0;0 0.0;0 0.0;0 6.0;0 6.0" keyTimes="0;0.28;0.33;0.5;0.56;1" dur="6s" repeatCount="indefinite"/><rect x="147.9" y="446.9" width="504.3" height="24.1" rx="12.0" fill="#dc2626" fill-opacity="0.09" stroke="#dc2626" stroke-opacity="0.38" stroke-width="1.3" filter="url(#soft)" opacity="0"><animate attributeName="opacity" values="0;0;1;1;0;0" keyTimes="0;0.28;0.33;0.5;0.56;1" dur="6s" repeatCount="indefinite"/></rect><text x="400" y="460" text-anchor="middle" font-size="14.5" font-weight="bold" fill="#dc2626" opacity="0">② 开关断开：电感不许电流突变，把节点拉到负压——二极管接住续流<animate attributeName="opacity" values="0;0;1;1;0;0" keyTimes="0;0.28;0.33;0.5;0.56;1" dur="6s" repeatCount="indefinite"/></text></g><g><animateTransform attributeName="transform" type="translate" values="0 6.0;0 6.0;0 0.0;0 0.0" keyTimes="0;0.58;0.64;1" dur="6s" repeatCount="indefinite"/><rect x="114.0" y="446.9" width="572.0" height="24.1" rx="12.0" fill="#7c3aed" fill-opacity="0.09" stroke="#7c3aed" stroke-opacity="0.38" stroke-width="1.3" filter="url(#soft)" opacity="0"><animate attributeName="opacity" values="0;0;1;1" keyTimes="0;0.58;0.64;1" dur="6s" repeatCount="indefinite"/></rect><text x="400" y="460" text-anchor="middle" font-size="14.5" font-weight="bold" fill="#7c3aed" opacity="0">③ 伏秒平衡：电感一周期平均电压必须为 0 → Vout = D×Vin = 0.42×12 = 5V<animate attributeName="opacity" values="0;0;1;1" keyTimes="0;0.58;0.64;1" dur="6s" repeatCount="indefinite"/></text></g><g opacity="0">
<animate attributeName="opacity" values="0;0;1;1" keyTimes="0;0.7;0.75;1" dur="6s" repeatCount="indefinite"/>
<rect x="35" y="470" width="730" height="34.0" rx="9" fill="#ecfdf5" stroke="#059669" stroke-width="1.5" filter="url(#soft)"/><rect x="41" y="477" width="3" height="20.0" rx="1.5" fill="#059669"/><text x="400" y="492.0" text-anchor="middle" font-size="13.5" font-weight="bold" fill="#059669">电感=水车的惯性：开关只管断续送水，惯性把水流碾平——效率 90%+ 的秘密是开关不顶压差</text>
</g></svg>